<svg width="115" height="77" viewBox="0 0 115 77" fill="none" xmlns="http://www.w3.org/2000/svg">
<path d="M19.478 6.56799C25.2807 6.56799 28.6513 10.7493 29.59 19.112C29.59 26.024 27.9687 30.376 24.726 32.168H23.958C21.4833 31.9973 20.246 31.1013 20.246 29.48L20.758 19.88V15.144L19.99 14.248H18.71C15.9793 14.248 12.7793 21.8427 9.11 37.032L8.342 46.632V49.448C8.342 58.3227 12.31 63.528 20.246 65.064H25.622C34.4967 65.064 45.2487 59.3467 57.878 47.912H58.39C60.694 47.912 62.0167 49.3627 62.358 52.264C60.3953 57.384 58.0913 59.944 55.446 59.944C43.2433 68.648 32.278 73 22.55 73C12.822 73 5.95267 67.6667 1.942 57L0.790001 47.912V46.248C0.790001 33.0213 4.502 20.8613 11.926 9.768C14.3153 7.63466 16.8327 6.56799 19.478 6.56799ZM75.03 0.167999H75.542C85.8673 2.04533 91.03 7.03733 91.03 15.144V17.448C91.03 26.408 85.3127 35.3253 73.878 44.2V44.712C92.3953 61.2667 105.195 69.544 112.278 69.544C113.558 70.4827 114.198 71.6347 114.198 73C114.198 74.9627 112.747 76.2 109.846 76.712C102.763 76.712 89.5367 68.1787 70.166 51.112L64.662 48.168H64.278C66.6673 57.7253 67.862 65.1067 67.862 70.312C67.862 72.5307 66.4967 74.1093 63.766 75.048C59.8407 75.048 57.366 65.448 56.342 46.248C53.6113 37.3733 52.246 30.2907 52.246 25V23.848C52.246 16.0827 53.9527 12.2 57.366 12.2L59.798 13.48H60.566C64.662 4.60533 69.4833 0.167999 75.03 0.167999ZM64.662 34.344L64.278 39.08C72.214 39.08 78.614 32.5093 83.478 19.368V14.632C83.478 10.8773 80.918 8.616 75.798 7.848H75.03C69.654 7.848 66.198 16.68 64.662 34.344Z" fill="white"/>
</svg>
