<svg width="298" height="102" viewBox="0 0 298 102" fill="none" xmlns="http://www.w3.org/2000/svg">
<path d="M23.978 16.568C29.7807 16.568 33.1513 20.7493 34.09 29.112C34.09 36.024 32.4687 40.376 29.226 42.168H28.458C25.9833 41.9973 24.746 41.1013 24.746 39.48L25.258 29.88V25.144L24.49 24.248H23.21C20.4793 24.248 17.2793 31.8427 13.61 47.032L12.842 56.632V59.448C12.842 68.3227 16.81 73.528 24.746 75.064H30.122C38.9967 75.064 49.7487 69.3467 62.378 57.912H62.89C65.194 57.912 66.5167 59.3627 66.858 62.264C64.8953 67.384 62.5913 69.944 59.946 69.944C47.7433 78.648 36.778 83 27.05 83C17.322 83 10.4527 77.6667 6.442 67L5.29 57.912V56.248C5.29 43.0213 9.002 30.8613 16.426 19.768C18.8153 17.6347 21.3327 16.568 23.978 16.568ZM79.53 10.168H80.042C90.3673 12.0453 95.53 17.0373 95.53 25.144V27.448C95.53 36.408 89.8127 45.3253 78.378 54.2V54.712C96.8953 71.2667 109.695 79.544 116.778 79.544C118.058 80.4827 118.698 81.6347 118.698 83C118.698 84.9627 117.247 86.2 114.346 86.712C107.263 86.712 94.0367 78.1787 74.666 61.112L69.162 58.168H68.778C71.1673 67.7253 72.362 75.1067 72.362 80.312C72.362 82.5307 70.9967 84.1093 68.266 85.048C64.3407 85.048 61.866 75.448 60.842 56.248C58.1113 47.3733 56.746 40.2907 56.746 35V33.848C56.746 26.0827 58.4527 22.2 61.866 22.2L64.298 23.48H65.066C69.162 14.6053 73.9833 10.168 79.53 10.168ZM69.162 44.344L68.778 49.08C76.714 49.08 83.114 42.5093 87.978 29.368V24.632C87.978 20.8773 85.418 18.616 80.298 17.848H79.53C74.154 17.848 70.698 26.68 69.162 44.344Z" fill="white"/>
<path d="M134.703 31.1933C134.703 26.636 135.829 23.0683 138.082 20.4901C140.347 17.899 143.596 16.6034 147.828 16.6034C150.302 16.6034 152.346 17.0266 153.961 17.873C155.575 18.7063 156.734 19.8521 157.437 21.3105C157.802 22.0657 157.743 22.5865 157.261 22.873L155.718 23.7714C155.198 24.0709 154.735 23.8235 154.332 23.0292C153.902 22.2089 153.199 21.4407 152.222 20.7245C151.246 20.0084 149.846 19.6503 148.023 19.6503C144.768 19.6503 142.398 20.6659 140.914 22.6972C139.442 24.7154 138.707 27.5474 138.707 31.1933C138.707 34.8391 139.442 37.6776 140.914 39.7089C142.398 41.7271 144.768 42.7362 148.023 42.7362C149.898 42.7362 151.396 42.3065 152.515 41.4472C153.648 40.5878 154.468 39.6894 154.976 38.7519C155.38 37.9967 155.849 37.7688 156.382 38.0683L158.004 38.9862C158.472 39.2597 158.511 39.7805 158.121 40.5487C157.353 42.0461 156.103 43.2961 154.371 44.2987C152.639 45.2883 150.458 45.7831 147.828 45.7831C143.596 45.7831 140.347 44.494 138.082 41.9159C135.829 39.3248 134.703 35.7506 134.703 31.1933ZM161.949 39.7284C161.949 37.4107 163.03 35.7115 165.191 34.6308C167.366 33.55 170.608 32.9185 174.918 32.7362V31.4081C174.918 30.1842 174.638 29.1295 174.078 28.244C173.531 27.3456 172.437 26.8964 170.797 26.8964C169.755 26.8964 168.922 27.0006 168.297 27.2089C167.672 27.4042 167.099 27.6711 166.578 28.0097C166.07 28.3352 165.582 28.7584 165.113 29.2792C164.761 29.6698 164.429 29.6894 164.117 29.3378L163.101 28.1659C162.815 27.8404 162.912 27.4498 163.394 26.994C164.084 26.343 164.755 25.8547 165.406 25.5292C166.057 25.2037 166.864 24.9302 167.828 24.7089C168.804 24.4745 169.794 24.3573 170.797 24.3573C173.518 24.3573 175.458 25.0605 176.617 26.4667C177.776 27.8599 178.355 29.774 178.355 32.2089V44.3183C178.355 44.9042 178.062 45.1972 177.476 45.1972H175.718C175.211 45.1972 174.957 44.9042 174.957 44.3183V43.3612H174.918C173.889 44.1685 172.88 44.7349 171.89 45.0605C170.914 45.373 169.82 45.5292 168.609 45.5292C166.474 45.5292 164.827 45.0214 163.668 44.0058C162.522 42.9771 161.949 41.5513 161.949 39.7284ZM165.504 39.8065C165.504 40.6138 165.673 41.2649 166.011 41.7597C166.35 42.2414 166.819 42.5539 167.418 42.6972C168.017 42.8274 168.642 42.8925 169.293 42.8925C170.295 42.8925 171.246 42.7948 172.144 42.5995C173.043 42.4042 173.967 41.8899 174.918 41.0565V35.2948C172.287 35.4901 170.412 35.731 169.293 36.0175C168.173 36.2909 167.261 36.7727 166.558 37.4628C165.855 38.1399 165.504 38.9211 165.504 39.8065ZM184.8 45.1972C184.215 45.1972 183.922 44.9042 183.922 44.3183V25.5683C183.922 24.9823 184.215 24.6894 184.8 24.6894H186.441C187.027 24.6894 187.32 24.9823 187.32 25.5683V27.912H187.398C188.023 26.7401 188.759 25.8547 189.605 25.2558C190.452 24.6568 191.506 24.3573 192.769 24.3573C193.603 24.3573 194.188 24.4289 194.527 24.5722C194.827 24.6894 194.937 24.8847 194.859 25.1581L194.41 26.7597C194.345 26.994 194.175 27.0852 193.902 27.0331C193.446 26.942 193.017 26.8964 192.613 26.8964C191.09 26.8964 189.833 27.5865 188.843 28.9667C187.854 30.3339 187.359 32.2024 187.359 34.5722V44.3183C187.359 44.9042 187.066 45.1972 186.48 45.1972H184.8ZM198.902 45.1972C198.316 45.1972 198.023 44.9042 198.023 44.3183V19.9433C198.023 19.6829 198.088 19.4355 198.218 19.2011L199.586 16.7206C199.833 16.2649 200.035 16.037 200.191 16.037H200.875C201.265 16.037 201.461 16.2649 201.461 16.7206V44.3183C201.461 44.9042 201.168 45.1972 200.582 45.1972H198.902ZM205.894 34.9433C205.894 31.8834 206.702 29.3573 208.316 27.3651C209.944 25.3599 212.32 24.3573 215.445 24.3573C218.57 24.3573 220.94 25.3599 222.554 27.3651C224.182 29.3573 224.996 31.8834 224.996 34.9433C224.996 38.0032 224.182 40.5357 222.554 42.5409C220.94 44.5331 218.57 45.5292 215.445 45.5292C212.32 45.5292 209.944 44.5331 208.316 42.5409C206.702 40.5357 205.894 38.0032 205.894 34.9433ZM209.527 34.9433C209.527 37.6776 210.067 39.7024 211.148 41.0175C212.229 42.3326 213.661 42.9901 215.445 42.9901C217.229 42.9901 218.661 42.3326 219.742 41.0175C220.823 39.7024 221.363 37.6776 221.363 34.9433C221.363 32.2089 220.823 30.1842 219.742 28.869C218.661 27.5539 217.229 26.8964 215.445 26.8964C213.661 26.8964 212.229 27.5539 211.148 28.869C210.067 30.1842 209.527 32.2089 209.527 34.9433ZM228.629 43.2831C228.225 42.9055 228.14 42.5539 228.375 42.2284L229.254 40.998C229.54 40.6073 229.963 40.6269 230.523 41.0565C231.291 41.6425 232.144 42.1112 233.082 42.4628C234.032 42.8144 235.113 42.9901 236.324 42.9901C237.04 42.9901 237.678 42.9055 238.238 42.7362C238.798 42.5539 239.286 42.2219 239.703 41.7401C240.132 41.2584 240.347 40.6138 240.347 39.8065C240.347 39.3378 240.243 38.8951 240.035 38.4784C239.84 38.0618 239.527 37.7297 239.097 37.4823C238.681 37.2219 238.271 37.0201 237.867 36.8769C237.203 36.6295 236.539 36.4276 235.875 36.2714C235.224 36.1021 234.364 35.8482 233.297 35.5097C232.58 35.2883 231.903 34.9758 231.265 34.5722C230.627 34.1555 230.067 33.5956 229.586 32.8925C229.117 32.1894 228.882 31.2193 228.882 29.9823C228.882 28.7193 229.267 27.6321 230.035 26.7206C230.803 25.8092 231.767 25.1907 232.925 24.8651C234.084 24.5266 235.211 24.3573 236.304 24.3573C237.919 24.3573 239.215 24.5461 240.191 24.9237C241.181 25.2883 242.034 25.7245 242.75 26.2323C243.166 26.5318 243.225 26.8769 242.925 27.2675L242.047 28.4394C241.773 28.817 241.35 28.8039 240.777 28.4003C240.295 28.0618 239.612 27.7427 238.726 27.4433C237.841 27.1438 237.066 26.994 236.402 26.994C235.582 26.994 234.879 27.0852 234.293 27.2675C233.707 27.4498 233.231 27.7623 232.867 28.205C232.502 28.6477 232.32 29.1685 232.32 29.7675C232.32 30.2232 232.392 30.6334 232.535 30.998C232.678 31.3495 232.945 31.675 233.336 31.9745C233.726 32.274 234.273 32.5149 234.976 32.6972C236.07 32.9836 237.066 33.244 237.965 33.4784C238.876 33.7128 239.696 33.9993 240.425 34.3378C241.376 34.7805 242.105 35.2688 242.613 35.8026C243.134 36.3365 243.492 36.9159 243.687 37.5409C243.882 38.1529 243.98 38.8365 243.98 39.5917C243.98 40.9849 243.563 42.1633 242.73 43.1269C241.91 44.0904 240.992 44.7349 239.976 45.0605C238.961 45.373 237.737 45.5292 236.304 45.5292C234.364 45.5292 232.698 45.2558 231.304 44.7089C229.924 44.149 229.032 43.6737 228.629 43.2831Z" fill="white"/>
<path d="M136.164 79.4648C135.513 79.4648 135.188 79.1067 135.188 78.3906V52.5312C135.188 51.815 135.513 51.457 136.164 51.457H145.598C149.361 51.457 152.082 52.1601 153.762 53.5663C155.455 54.9726 156.301 56.8281 156.301 59.1328C156.301 61.164 155.618 62.8697 154.25 64.2499C152.896 65.6301 150.963 66.4244 148.45 66.6328V66.6718C149.778 67.6614 150.657 68.4166 151.086 68.9374C151.516 69.4453 151.998 70.1354 152.532 71.0078L156.946 78.1757C157.48 79.0351 157.362 79.4648 156.594 79.4648H154.368C153.756 79.4648 153.3 79.2109 153 78.7031L148.938 71.7304C148.352 70.7278 147.512 69.7447 146.418 68.7812C145.325 67.8176 143.964 67.3359 142.336 67.3359H138.938V78.3906C138.938 79.1067 138.612 79.4648 137.961 79.4648H136.164ZM138.938 64.1328H144.582C147.122 64.1328 149.075 63.8007 150.442 63.1367C151.809 62.4596 152.493 61.0468 152.493 58.8984C152.493 57.2578 151.868 56.1445 150.618 55.5585C149.368 54.9596 147.668 54.6601 145.52 54.6601H138.938V64.1328ZM160.754 69.2109C160.754 65.9817 161.562 63.4101 163.176 61.496C164.791 59.582 167.102 58.6249 170.11 58.6249C172.61 58.6249 174.68 59.5038 176.321 61.2617C177.974 63.0064 178.801 65.7994 178.801 69.6406C178.801 70.2265 178.534 70.5195 178 70.5195H164.387C164.608 73.0325 165.286 74.7838 166.418 75.7734C167.551 76.7499 168.834 77.2382 170.266 77.2382C171.776 77.2382 172.935 76.9843 173.743 76.4765C174.55 75.9687 175.142 75.4674 175.52 74.9726C175.937 74.4257 176.34 74.3216 176.731 74.6601L177.883 75.6562C178.183 75.9166 178.183 76.2747 177.883 76.7304C177.636 77.108 176.926 77.7135 175.754 78.5468C174.595 79.3801 172.766 79.7968 170.266 79.7968C167.011 79.7968 164.608 78.8398 163.059 76.9257C161.523 75.0117 160.754 72.44 160.754 69.2109ZM164.309 67.9804H175.344C175.292 66.1575 174.823 64.5624 173.938 63.1953C173.052 61.815 171.75 61.1249 170.032 61.1249C168.521 61.1249 167.239 61.6328 166.184 62.6484C165.129 63.651 164.504 65.4283 164.309 67.9804ZM182.2 69.2109C182.2 66.4114 182.877 63.9505 184.231 61.8281C185.585 59.6926 187.564 58.6249 190.168 58.6249C191.666 58.6249 192.864 58.8723 193.762 59.3671C194.661 59.8619 195.468 60.539 196.184 61.3984H196.223L196.34 59.8359C196.379 59.2499 196.633 58.957 197.102 58.957H198.743C199.329 58.957 199.622 59.2499 199.622 59.8359V79.621C199.622 82.121 199.042 84.0742 197.883 85.4804C196.737 86.8997 194.465 87.6093 191.067 87.6093C188.788 87.6093 187.082 87.3489 185.95 86.8281C184.817 86.3203 184.01 85.7799 183.528 85.207C183.176 84.7773 183.157 84.4127 183.469 84.1132L184.543 83.0585C184.843 82.7721 185.26 82.8632 185.793 83.332C186.483 83.957 187.148 84.3997 187.786 84.6601C188.424 84.9335 189.524 85.0703 191.086 85.0703C192.857 85.0703 194.146 84.6926 194.954 83.9374C195.774 83.1822 196.184 81.6197 196.184 79.2499V78.0781C196.184 77.6744 196.197 77.2773 196.223 76.8867H196.184C195.507 77.7851 194.706 78.4947 193.782 79.0156C192.87 79.5364 191.666 79.7968 190.168 79.7968C187.564 79.7968 185.585 78.7356 184.231 76.6132C182.877 74.4778 182.2 72.0104 182.2 69.2109ZM185.832 69.2109C185.832 71.6067 186.243 73.5468 187.063 75.0312C187.896 76.5156 189.302 77.2578 191.282 77.2578C192.688 77.2578 193.853 76.7825 194.778 75.832C195.715 74.8684 196.184 73.4101 196.184 71.457V66.9648C196.184 65.0117 195.715 63.5598 194.778 62.6093C193.853 61.6458 192.688 61.164 191.282 61.164C189.302 61.164 187.896 61.9062 187.063 63.3906C186.243 64.8749 185.832 66.815 185.832 69.2109ZM204.075 73.996C204.075 71.6783 205.155 69.9791 207.317 68.8984C209.491 67.8176 212.733 67.1861 217.043 67.0038V65.6757C217.043 64.4518 216.763 63.3971 216.204 62.5117C215.657 61.6132 214.563 61.164 212.922 61.164C211.881 61.164 211.047 61.2682 210.422 61.4765C209.797 61.6718 209.224 61.9387 208.704 62.2773C208.196 62.6028 207.707 63.026 207.239 63.5468C206.887 63.9374 206.555 63.957 206.243 63.6054L205.227 62.4335C204.941 62.108 205.038 61.7174 205.52 61.2617C206.21 60.6106 206.881 60.1223 207.532 59.7968C208.183 59.4713 208.99 59.1979 209.954 58.9765C210.93 58.7421 211.92 58.6249 212.922 58.6249C215.644 58.6249 217.584 59.3281 218.743 60.7343C219.901 62.1275 220.481 64.0416 220.481 66.4765V78.5859C220.481 79.1718 220.188 79.4648 219.602 79.4648H217.844C217.336 79.4648 217.082 79.1718 217.082 78.5859V77.6288H217.043C216.015 78.4361 215.006 79.0025 214.016 79.3281C213.039 79.6406 211.946 79.7968 210.735 79.7968C208.599 79.7968 206.952 79.289 205.793 78.2734C204.648 77.2447 204.075 75.8189 204.075 73.996ZM207.629 74.0742C207.629 74.8814 207.799 75.5325 208.137 76.0273C208.476 76.5091 208.944 76.8216 209.543 76.9648C210.142 77.095 210.767 77.1601 211.418 77.1601C212.421 77.1601 213.372 77.0624 214.27 76.8671C215.168 76.6718 216.093 76.1575 217.043 75.3242V69.5624C214.413 69.7578 212.538 69.9986 211.418 70.2851C210.299 70.5585 209.387 71.0403 208.684 71.7304C207.981 72.4075 207.629 73.1887 207.629 74.0742ZM226.926 79.4648C226.34 79.4648 226.047 79.1718 226.047 78.5859V54.2109C226.047 53.9505 226.112 53.7031 226.243 53.4687L227.61 50.9882C227.857 50.5325 228.059 50.3046 228.215 50.3046H228.899C229.289 50.3046 229.485 50.5325 229.485 50.9882V78.5859C229.485 79.1718 229.192 79.4648 228.606 79.4648H226.926ZM233.918 73.996C233.918 71.6783 234.999 69.9791 237.161 68.8984C239.335 67.8176 242.577 67.1861 246.887 67.0038V65.6757C246.887 64.4518 246.607 63.3971 246.047 62.5117C245.5 61.6132 244.407 61.164 242.766 61.164C241.724 61.164 240.891 61.2682 240.266 61.4765C239.641 61.6718 239.068 61.9387 238.547 62.2773C238.039 62.6028 237.551 63.026 237.082 63.5468C236.731 63.9374 236.399 63.957 236.086 63.6054L235.071 62.4335C234.784 62.108 234.882 61.7174 235.364 61.2617C236.054 60.6106 236.724 60.1223 237.375 59.7968C238.026 59.4713 238.834 59.1979 239.797 58.9765C240.774 58.7421 241.763 58.6249 242.766 58.6249C245.487 58.6249 247.427 59.3281 248.586 60.7343C249.745 62.1275 250.325 64.0416 250.325 66.4765V78.5859C250.325 79.1718 250.032 79.4648 249.446 79.4648H247.688C247.18 79.4648 246.926 79.1718 246.926 78.5859V77.6288H246.887C245.858 78.4361 244.849 79.0025 243.86 79.3281C242.883 79.6406 241.789 79.7968 240.579 79.7968C238.443 79.7968 236.796 79.289 235.637 78.2734C234.491 77.2447 233.918 75.8189 233.918 73.996ZM237.473 74.0742C237.473 74.8814 237.642 75.5325 237.981 76.0273C238.319 76.5091 238.788 76.8216 239.387 76.9648C239.986 77.095 240.611 77.1601 241.262 77.1601C242.265 77.1601 243.215 77.0624 244.114 76.8671C245.012 76.6718 245.937 76.1575 246.887 75.3242V69.5624C244.257 69.7578 242.382 69.9986 241.262 70.2851C240.142 70.5585 239.231 71.0403 238.528 71.7304C237.825 72.4075 237.473 73.1887 237.473 74.0742ZM254.778 69.2109C254.778 66.4114 255.455 63.9505 256.809 61.8281C258.163 59.6926 260.142 58.6249 262.747 58.6249C264.244 58.6249 265.442 58.8723 266.34 59.3671C267.239 59.8619 268.046 60.539 268.762 61.3984H268.801C268.775 61.0078 268.762 60.6106 268.762 60.207V51.5156C268.762 50.9296 269.055 50.6367 269.641 50.6367H271.321C271.907 50.6367 272.2 50.9296 272.2 51.5156V78.5859C272.2 79.1718 271.907 79.4648 271.321 79.4648H269.68C269.211 79.4648 268.957 79.1718 268.918 78.5859L268.801 77.0234H268.762C268.046 77.8828 267.239 78.5598 266.34 79.0546C265.442 79.5494 264.244 79.7968 262.747 79.7968C260.142 79.7968 258.163 78.7356 256.809 76.6132C255.455 74.4778 254.778 72.0104 254.778 69.2109ZM258.411 69.2109C258.411 71.6067 258.821 73.5468 259.641 75.0312C260.474 76.5156 261.881 77.2578 263.86 77.2578C265.266 77.2578 266.431 76.7825 267.356 75.832C268.293 74.8684 268.762 73.4101 268.762 71.457V66.9648C268.762 65.0117 268.293 63.5598 267.356 62.6093C266.431 61.6458 265.266 61.164 263.86 61.164C261.881 61.164 260.474 61.9062 259.641 63.3906C258.821 64.8749 258.411 66.815 258.411 69.2109ZM276.653 69.2109C276.653 66.151 277.46 63.6249 279.075 61.6328C280.702 59.6275 283.079 58.6249 286.204 58.6249C289.329 58.6249 291.698 59.6275 293.313 61.6328C294.941 63.6249 295.754 66.151 295.754 69.2109C295.754 72.2708 294.941 74.8033 293.313 76.8085C291.698 78.8007 289.329 79.7968 286.204 79.7968C283.079 79.7968 280.702 78.8007 279.075 76.8085C277.46 74.8033 276.653 72.2708 276.653 69.2109ZM280.286 69.2109C280.286 71.9453 280.826 73.97 281.907 75.2851C282.987 76.6002 284.42 77.2578 286.204 77.2578C287.987 77.2578 289.42 76.6002 290.5 75.2851C291.581 73.97 292.122 71.9453 292.122 69.2109C292.122 66.4765 291.581 64.4518 290.5 63.1367C289.42 61.8216 287.987 61.164 286.204 61.164C284.42 61.164 282.987 61.8216 281.907 63.1367C280.826 64.4518 280.286 66.4765 280.286 69.2109Z" fill="white"/>
</svg>
