<svg width="97" height="28" viewBox="0 0 97 28" fill="none" xmlns="http://www.w3.org/2000/svg">
<path d="M6.14938 5.24C7.96271 5.24 9.01604 6.54666 9.30938 9.16C9.30938 11.32 8.80271 12.68 7.78938 13.24H7.54938C6.77604 13.1867 6.38938 12.9067 6.38938 12.4L6.54938 9.4V7.92L6.30938 7.64H5.90938C5.05604 7.64 4.05604 10.0133 2.90938 14.76L2.66938 17.76V18.64C2.66938 21.4133 3.90938 23.04 6.38938 23.52H8.06938C10.8427 23.52 14.2027 21.7333 18.1494 18.16H18.3094C19.0294 18.16 19.4427 18.6133 19.5494 19.52C18.936 21.12 18.216 21.92 17.3894 21.92C13.576 24.64 10.1494 26 7.10938 26C4.06938 26 1.92271 24.3333 0.669376 21L0.309376 18.16V17.64C0.309376 13.5067 1.46938 9.70667 3.78938 6.24C4.53604 5.57333 5.32271 5.24 6.14938 5.24ZM23.5094 3.24H23.6694C26.896 3.82667 28.5094 5.38667 28.5094 7.92V8.64C28.5094 11.44 26.7227 14.2267 23.1494 17V17.16C28.936 22.3333 32.936 24.92 35.1494 24.92C35.5494 25.2133 35.7494 25.5733 35.7494 26C35.7494 26.6133 35.296 27 34.3894 27.16C32.176 27.16 28.0427 24.4933 21.9894 19.16L20.2694 18.24H20.1494C20.896 21.2267 21.2694 23.5333 21.2694 25.16C21.2694 25.8533 20.8427 26.3467 19.9894 26.64C18.7627 26.64 17.9894 23.64 17.6694 17.64C16.816 14.8667 16.3894 12.6533 16.3894 11V10.64C16.3894 8.21333 16.9227 7 17.9894 7L18.7494 7.4H18.9894C20.2694 4.62667 21.776 3.24 23.5094 3.24ZM20.2694 13.92L20.1494 15.4C22.6294 15.4 24.6294 13.3467 26.1494 9.24V7.76C26.1494 6.58667 25.3494 5.88 23.7494 5.64H23.5094C21.8294 5.64 20.7494 8.4 20.2694 13.92Z" fill="white"/>
<path d="M39.6289 9.09863C39.6289 7.50358 40.0231 6.25488 40.8115 5.35254C41.6045 4.44564 42.7415 3.99219 44.2227 3.99219C45.0885 3.99219 45.804 4.1403 46.3691 4.43652C46.9342 4.72819 47.3398 5.12923 47.5859 5.63965C47.7135 5.90397 47.693 6.08626 47.5244 6.18652L46.9844 6.50098C46.8021 6.60579 46.6403 6.51921 46.499 6.24121C46.3486 5.9541 46.1025 5.68522 45.7607 5.43457C45.4189 5.18392 44.929 5.05859 44.291 5.05859C43.1517 5.05859 42.3223 5.41406 41.8027 6.125C41.2878 6.83138 41.0303 7.82259 41.0303 9.09863C41.0303 10.3747 41.2878 11.3682 41.8027 12.0791C42.3223 12.7855 43.1517 13.1387 44.291 13.1387C44.9473 13.1387 45.4714 12.9883 45.8633 12.6875C46.2598 12.3867 46.5469 12.0723 46.7246 11.7441C46.8659 11.4798 47.0299 11.4001 47.2168 11.5049L47.7842 11.8262C47.9482 11.9219 47.9619 12.1042 47.8252 12.373C47.5563 12.8971 47.1188 13.3346 46.5127 13.6855C45.9066 14.0319 45.1432 14.2051 44.2227 14.2051C42.7415 14.2051 41.6045 13.7539 40.8115 12.8516C40.0231 11.9447 39.6289 10.6937 39.6289 9.09863ZM49.165 12.0859C49.165 11.2747 49.5433 10.68 50.2998 10.3018C51.0609 9.9235 52.1956 9.70247 53.7041 9.63867V9.17383C53.7041 8.74544 53.6061 8.3763 53.4102 8.06641C53.2188 7.75195 52.8359 7.59473 52.2617 7.59473C51.8971 7.59473 51.6055 7.63118 51.3867 7.7041C51.168 7.77246 50.9674 7.86589 50.7852 7.98438C50.6074 8.09831 50.4365 8.24642 50.2725 8.42871C50.1494 8.56543 50.0332 8.57227 49.9238 8.44922L49.5684 8.03906C49.4681 7.92513 49.5023 7.78841 49.6709 7.62891C49.9124 7.40104 50.1471 7.23014 50.375 7.11621C50.6029 7.00228 50.8854 6.90658 51.2227 6.8291C51.5645 6.74707 51.9108 6.70605 52.2617 6.70605C53.2142 6.70605 53.8932 6.95215 54.2988 7.44434C54.7044 7.93197 54.9072 8.60189 54.9072 9.4541V13.6924C54.9072 13.8975 54.8047 14 54.5996 14H53.9844C53.8066 14 53.7178 13.8975 53.7178 13.6924V13.3574H53.7041C53.3441 13.64 52.9909 13.8382 52.6445 13.9521C52.3027 14.0615 51.9199 14.1162 51.4961 14.1162C50.7487 14.1162 50.1722 13.9385 49.7666 13.583C49.3656 13.223 49.165 12.724 49.165 12.0859ZM50.4092 12.1133C50.4092 12.3958 50.4684 12.6237 50.5869 12.7969C50.7054 12.9655 50.8695 13.0749 51.0791 13.125C51.2887 13.1706 51.5075 13.1934 51.7354 13.1934C52.0863 13.1934 52.4189 13.1592 52.7334 13.0908C53.0479 13.0225 53.3714 12.8424 53.7041 12.5508V10.5342C52.7835 10.6025 52.1273 10.6868 51.7354 10.7871C51.3434 10.8828 51.0244 11.0514 50.7783 11.293C50.5322 11.5299 50.4092 11.8034 50.4092 12.1133ZM57.1631 14C56.958 14 56.8555 13.8975 56.8555 13.6924V7.12988C56.8555 6.9248 56.958 6.82227 57.1631 6.82227H57.7373C57.9424 6.82227 58.0449 6.9248 58.0449 7.12988V7.9502H58.0723C58.291 7.54004 58.5485 7.23014 58.8447 7.02051C59.141 6.81087 59.5101 6.70605 59.9521 6.70605C60.2438 6.70605 60.4489 6.73112 60.5674 6.78125C60.6722 6.82227 60.7109 6.89062 60.6836 6.98633L60.5264 7.54688C60.5036 7.62891 60.4443 7.66081 60.3486 7.64258C60.1891 7.61068 60.0387 7.59473 59.8975 7.59473C59.3643 7.59473 58.9245 7.83626 58.5781 8.31934C58.2318 8.79785 58.0586 9.45182 58.0586 10.2812V13.6924C58.0586 13.8975 57.9561 14 57.751 14H57.1631ZM62.0986 14C61.8936 14 61.791 13.8975 61.791 13.6924V5.16113C61.791 5.06999 61.8138 4.9834 61.8594 4.90137L62.3379 4.0332C62.4245 3.8737 62.4951 3.79395 62.5498 3.79395H62.7891C62.9258 3.79395 62.9941 3.8737 62.9941 4.0332V13.6924C62.9941 13.8975 62.8916 14 62.6865 14H62.0986ZM64.5459 10.4111C64.5459 9.34017 64.8285 8.45605 65.3936 7.75879C65.9632 7.05697 66.7949 6.70605 67.8887 6.70605C68.9824 6.70605 69.8118 7.05697 70.377 7.75879C70.9466 8.45605 71.2314 9.34017 71.2314 10.4111C71.2314 11.4821 70.9466 12.3685 70.377 13.0703C69.8118 13.7676 68.9824 14.1162 67.8887 14.1162C66.7949 14.1162 65.9632 13.7676 65.3936 13.0703C64.8285 12.3685 64.5459 11.4821 64.5459 10.4111ZM65.8174 10.4111C65.8174 11.3682 66.0065 12.0768 66.3848 12.5371C66.763 12.9974 67.2643 13.2275 67.8887 13.2275C68.513 13.2275 69.0143 12.9974 69.3926 12.5371C69.7708 12.0768 69.96 11.3682 69.96 10.4111C69.96 9.4541 69.7708 8.74544 69.3926 8.28516C69.0143 7.82487 68.513 7.59473 67.8887 7.59473C67.2643 7.59473 66.763 7.82487 66.3848 8.28516C66.0065 8.74544 65.8174 9.4541 65.8174 10.4111ZM72.5029 13.3301C72.3617 13.1979 72.332 13.0749 72.4141 12.9609L72.7217 12.5303C72.8219 12.3936 72.9701 12.4004 73.166 12.5508C73.4349 12.7559 73.7334 12.9199 74.0615 13.043C74.3942 13.166 74.7725 13.2275 75.1963 13.2275C75.4469 13.2275 75.6702 13.1979 75.8662 13.1387C76.0622 13.0749 76.2331 12.9587 76.3789 12.79C76.5293 12.6214 76.6045 12.3958 76.6045 12.1133C76.6045 11.9492 76.568 11.7943 76.4951 11.6484C76.4268 11.5026 76.3174 11.3864 76.167 11.2998C76.0212 11.2087 75.8776 11.138 75.7363 11.0879C75.5039 11.0013 75.2715 10.9307 75.0391 10.876C74.8112 10.8167 74.5104 10.7279 74.1367 10.6094C73.8861 10.5319 73.6491 10.4225 73.4258 10.2812C73.2025 10.1354 73.0065 9.93945 72.8379 9.69336C72.6738 9.44727 72.5918 9.10775 72.5918 8.6748C72.5918 8.23275 72.7262 7.85221 72.9951 7.5332C73.264 7.21419 73.6012 6.99772 74.0068 6.88379C74.4124 6.7653 74.8066 6.70605 75.1895 6.70605C75.7546 6.70605 76.208 6.77214 76.5498 6.9043C76.8962 7.0319 77.1947 7.18457 77.4453 7.3623C77.5911 7.46712 77.6117 7.58789 77.5068 7.72461L77.1992 8.13477C77.1035 8.26693 76.9554 8.26237 76.7549 8.12109C76.5863 8.0026 76.347 7.89095 76.0371 7.78613C75.7272 7.68132 75.4561 7.62891 75.2236 7.62891C74.9365 7.62891 74.6904 7.66081 74.4854 7.72461C74.2803 7.78841 74.1139 7.89779 73.9863 8.05273C73.8587 8.20768 73.7949 8.38997 73.7949 8.59961C73.7949 8.75911 73.82 8.90267 73.8701 9.03027C73.9202 9.15332 74.0137 9.26725 74.1504 9.37207C74.2871 9.47689 74.4785 9.5612 74.7246 9.625C75.1074 9.72526 75.4561 9.81641 75.7705 9.89844C76.0895 9.98047 76.3766 10.0807 76.6318 10.1992C76.9645 10.3542 77.2197 10.5251 77.3975 10.7119C77.5798 10.8988 77.7051 11.1016 77.7734 11.3203C77.8418 11.5345 77.876 11.7738 77.876 12.0381C77.876 12.5257 77.7301 12.9382 77.4385 13.2754C77.1514 13.6126 76.8301 13.8382 76.4746 13.9521C76.1191 14.0615 75.6908 14.1162 75.1895 14.1162C74.5104 14.1162 73.9271 14.0205 73.4395 13.8291C72.9564 13.6331 72.6442 13.4668 72.5029 13.3301Z" fill="white"/>
<path d="M40.5039 25C40.276 25 40.1621 24.8747 40.1621 24.624V15.5732C40.1621 15.3226 40.276 15.1973 40.5039 15.1973H43.8057C45.1227 15.1973 46.0752 15.4434 46.6631 15.9355C47.2555 16.4277 47.5518 17.0771 47.5518 17.8838C47.5518 18.5947 47.3125 19.1917 46.834 19.6748C46.36 20.1579 45.6833 20.4359 44.8037 20.5088V20.5225C45.2686 20.8688 45.5762 21.1331 45.7266 21.3154C45.877 21.4932 46.0456 21.7347 46.2324 22.04L47.7773 24.5488C47.9642 24.8496 47.9232 25 47.6543 25H46.875C46.6608 25 46.5013 24.9111 46.3965 24.7334L44.9746 22.293C44.7695 21.9421 44.4756 21.598 44.0928 21.2607C43.71 20.9235 43.2337 20.7549 42.6641 20.7549H41.4746V24.624C41.4746 24.8747 41.3607 25 41.1328 25H40.5039ZM41.4746 19.6338H43.4502C44.3389 19.6338 45.0225 19.5176 45.501 19.2852C45.9795 19.0482 46.2188 18.5537 46.2188 17.8018C46.2188 17.2275 46 16.8379 45.5625 16.6328C45.125 16.4232 44.5303 16.3184 43.7783 16.3184H41.4746V19.6338ZM49.1104 21.4111C49.1104 20.2809 49.3929 19.3809 49.958 18.7109C50.5231 18.041 51.332 17.7061 52.3848 17.7061C53.2598 17.7061 53.9844 18.0137 54.5586 18.6289C55.1374 19.2396 55.4268 20.2171 55.4268 21.5615C55.4268 21.7666 55.3333 21.8691 55.1465 21.8691H50.3818C50.4593 22.7487 50.6963 23.3617 51.0928 23.708C51.4893 24.0498 51.9382 24.2207 52.4395 24.2207C52.9681 24.2207 53.3737 24.1318 53.6562 23.9541C53.9388 23.7764 54.1462 23.6009 54.2783 23.4277C54.4242 23.2363 54.5654 23.1999 54.7021 23.3184L55.1055 23.667C55.2103 23.7581 55.2103 23.8835 55.1055 24.043C55.0189 24.1751 54.7705 24.387 54.3604 24.6787C53.9548 24.9704 53.3145 25.1162 52.4395 25.1162C51.3001 25.1162 50.4593 24.7812 49.917 24.1113C49.3792 23.4414 49.1104 22.5413 49.1104 21.4111ZM50.3545 20.9805H54.2168C54.1986 20.3424 54.0345 19.7842 53.7246 19.3057C53.4147 18.8226 52.959 18.5811 52.3574 18.5811C51.8288 18.5811 51.3799 18.7588 51.0107 19.1143C50.6416 19.4652 50.4229 20.0872 50.3545 20.9805ZM56.6162 21.4111C56.6162 20.4313 56.8532 19.57 57.3271 18.8271C57.8011 18.0798 58.4938 17.7061 59.4053 17.7061C59.9294 17.7061 60.3486 17.7926 60.6631 17.9658C60.9775 18.139 61.2601 18.376 61.5107 18.6768H61.5244L61.5654 18.1299C61.5791 17.9248 61.668 17.8223 61.832 17.8223H62.4062C62.6113 17.8223 62.7139 17.9248 62.7139 18.1299V25.0547C62.7139 25.9297 62.5111 26.6133 62.1055 27.1055C61.7044 27.6022 60.9092 27.8506 59.7197 27.8506C58.9222 27.8506 58.3252 27.7594 57.9287 27.5771C57.5322 27.3994 57.2497 27.2103 57.0811 27.0098C56.958 26.8594 56.9512 26.7318 57.0605 26.627L57.4365 26.2578C57.5413 26.1576 57.6872 26.1895 57.874 26.3535C58.1156 26.5723 58.348 26.7272 58.5713 26.8184C58.7946 26.9141 59.1797 26.9619 59.7266 26.9619C60.3464 26.9619 60.7975 26.8298 61.0801 26.5654C61.3672 26.3011 61.5107 25.7542 61.5107 24.9248V24.5146C61.5107 24.3734 61.5153 24.2344 61.5244 24.0977H61.5107C61.2738 24.4121 60.9935 24.6605 60.6699 24.8428C60.3509 25.0251 59.9294 25.1162 59.4053 25.1162C58.4938 25.1162 57.8011 24.7448 57.3271 24.002C56.8532 23.2546 56.6162 22.391 56.6162 21.4111ZM57.8877 21.4111C57.8877 22.2497 58.0312 22.9287 58.3184 23.4482C58.61 23.9678 59.1022 24.2275 59.7949 24.2275C60.2871 24.2275 60.695 24.0612 61.0186 23.7285C61.3467 23.3913 61.5107 22.8809 61.5107 22.1973V20.625C61.5107 19.9414 61.3467 19.4333 61.0186 19.1006C60.695 18.7633 60.2871 18.5947 59.7949 18.5947C59.1022 18.5947 58.61 18.8545 58.3184 19.374C58.0312 19.8936 57.8877 20.5726 57.8877 21.4111ZM64.2725 23.0859C64.2725 22.2747 64.6507 21.68 65.4072 21.3018C66.1683 20.9235 67.3031 20.7025 68.8115 20.6387V20.1738C68.8115 19.7454 68.7135 19.3763 68.5176 19.0664C68.3262 18.752 67.9434 18.5947 67.3691 18.5947C67.0046 18.5947 66.7129 18.6312 66.4941 18.7041C66.2754 18.7725 66.0749 18.8659 65.8926 18.9844C65.7148 19.0983 65.5439 19.2464 65.3799 19.4287C65.2568 19.5654 65.1406 19.5723 65.0312 19.4492L64.6758 19.0391C64.5755 18.9251 64.6097 18.7884 64.7783 18.6289C65.0199 18.401 65.2546 18.2301 65.4824 18.1162C65.7103 18.0023 65.9928 17.9066 66.3301 17.8291C66.6719 17.7471 67.0182 17.7061 67.3691 17.7061C68.3216 17.7061 69.0007 17.9521 69.4062 18.4443C69.8118 18.932 70.0146 19.6019 70.0146 20.4541V24.6924C70.0146 24.8975 69.9121 25 69.707 25H69.0918C68.9141 25 68.8252 24.8975 68.8252 24.6924V24.3574H68.8115C68.4515 24.64 68.0983 24.8382 67.752 24.9521C67.4102 25.0615 67.0273 25.1162 66.6035 25.1162C65.8561 25.1162 65.2796 24.9385 64.874 24.583C64.473 24.223 64.2725 23.724 64.2725 23.0859ZM65.5166 23.1133C65.5166 23.3958 65.5758 23.6237 65.6943 23.7969C65.8128 23.9655 65.9769 24.0749 66.1865 24.125C66.3962 24.1706 66.6149 24.1934 66.8428 24.1934C67.1937 24.1934 67.5264 24.1592 67.8408 24.0908C68.1553 24.0225 68.4788 23.8424 68.8115 23.5508V21.5342C67.891 21.6025 67.2347 21.6868 66.8428 21.7871C66.4508 21.8828 66.1318 22.0514 65.8857 22.293C65.6396 22.5299 65.5166 22.8034 65.5166 23.1133ZM72.2705 25C72.0654 25 71.9629 24.8975 71.9629 24.6924V16.1611C71.9629 16.07 71.9857 15.9834 72.0312 15.9014L72.5098 15.0332C72.5964 14.8737 72.667 14.7939 72.7217 14.7939H72.9609C73.0977 14.7939 73.166 14.8737 73.166 15.0332V24.6924C73.166 24.8975 73.0635 25 72.8584 25H72.2705ZM74.7178 23.0859C74.7178 22.2747 75.096 21.68 75.8525 21.3018C76.6136 20.9235 77.7484 20.7025 79.2568 20.6387V20.1738C79.2568 19.7454 79.1589 19.3763 78.9629 19.0664C78.7715 18.752 78.3887 18.5947 77.8145 18.5947C77.4499 18.5947 77.1582 18.6312 76.9395 18.7041C76.7207 18.7725 76.5202 18.8659 76.3379 18.9844C76.1602 19.0983 75.9893 19.2464 75.8252 19.4287C75.7021 19.5654 75.5859 19.5723 75.4766 19.4492L75.1211 19.0391C75.0208 18.9251 75.055 18.7884 75.2236 18.6289C75.4652 18.401 75.6999 18.2301 75.9277 18.1162C76.1556 18.0023 76.4382 17.9066 76.7754 17.8291C77.1172 17.7471 77.4635 17.7061 77.8145 17.7061C78.7669 17.7061 79.446 17.9521 79.8516 18.4443C80.2572 18.932 80.46 19.6019 80.46 20.4541V24.6924C80.46 24.8975 80.3574 25 80.1523 25H79.5371C79.3594 25 79.2705 24.8975 79.2705 24.6924V24.3574H79.2568C78.8968 24.64 78.5436 24.8382 78.1973 24.9521C77.8555 25.0615 77.4727 25.1162 77.0488 25.1162C76.3014 25.1162 75.7249 24.9385 75.3193 24.583C74.9183 24.223 74.7178 23.724 74.7178 23.0859ZM75.9619 23.1133C75.9619 23.3958 76.0212 23.6237 76.1396 23.7969C76.2581 23.9655 76.4222 24.0749 76.6318 24.125C76.8415 24.1706 77.0602 24.1934 77.2881 24.1934C77.639 24.1934 77.9717 24.1592 78.2861 24.0908C78.6006 24.0225 78.9242 23.8424 79.2568 23.5508V21.5342C78.3363 21.6025 77.68 21.6868 77.2881 21.7871C76.8962 21.8828 76.5771 22.0514 76.3311 22.293C76.085 22.5299 75.9619 22.8034 75.9619 23.1133ZM82.0186 21.4111C82.0186 20.4313 82.2555 19.57 82.7295 18.8271C83.2035 18.0798 83.8962 17.7061 84.8076 17.7061C85.3317 17.7061 85.751 17.7926 86.0654 17.9658C86.3799 18.139 86.6624 18.376 86.9131 18.6768H86.9268C86.9176 18.54 86.9131 18.401 86.9131 18.2598V15.2178C86.9131 15.0127 87.0156 14.9102 87.2207 14.9102H87.8086C88.0137 14.9102 88.1162 15.0127 88.1162 15.2178V24.6924C88.1162 24.8975 88.0137 25 87.8086 25H87.2344C87.0703 25 86.9814 24.8975 86.9678 24.6924L86.9268 24.1455H86.9131C86.6624 24.4463 86.3799 24.6833 86.0654 24.8564C85.751 25.0296 85.3317 25.1162 84.8076 25.1162C83.8962 25.1162 83.2035 24.7448 82.7295 24.002C82.2555 23.2546 82.0186 22.391 82.0186 21.4111ZM83.29 21.4111C83.29 22.2497 83.4336 22.9287 83.7207 23.4482C84.0124 23.9678 84.5046 24.2275 85.1973 24.2275C85.6895 24.2275 86.0973 24.0612 86.4209 23.7285C86.749 23.3913 86.9131 22.8809 86.9131 22.1973V20.625C86.9131 19.9414 86.749 19.4333 86.4209 19.1006C86.0973 18.7633 85.6895 18.5947 85.1973 18.5947C84.5046 18.5947 84.0124 18.8545 83.7207 19.374C83.4336 19.8936 83.29 20.5726 83.29 21.4111ZM89.6748 21.4111C89.6748 20.3402 89.9574 19.4561 90.5225 18.7588C91.0921 18.057 91.9238 17.7061 93.0176 17.7061C94.1113 17.7061 94.9408 18.057 95.5059 18.7588C96.0755 19.4561 96.3604 20.3402 96.3604 21.4111C96.3604 22.4821 96.0755 23.3685 95.5059 24.0703C94.9408 24.7676 94.1113 25.1162 93.0176 25.1162C91.9238 25.1162 91.0921 24.7676 90.5225 24.0703C89.9574 23.3685 89.6748 22.4821 89.6748 21.4111ZM90.9463 21.4111C90.9463 22.3682 91.1354 23.0768 91.5137 23.5371C91.8919 23.9974 92.3932 24.2275 93.0176 24.2275C93.6419 24.2275 94.1432 23.9974 94.5215 23.5371C94.8997 23.0768 95.0889 22.3682 95.0889 21.4111C95.0889 20.4541 94.8997 19.7454 94.5215 19.2852C94.1432 18.8249 93.6419 18.5947 93.0176 18.5947C92.3932 18.5947 91.8919 18.8249 91.5137 19.2852C91.1354 19.7454 90.9463 20.4541 90.9463 21.4111Z" fill="white"/>
</svg>
